# xmcd CD database file
#
# Track frame offsets:
#	150
#	50402
#	89369
#	130176
#
# Disc length: 2312 seconds
#
# Revision: 1
# Processed by: cddbd v1.5.2PL0 Copyright (c) Steve Scherf et al.
# Submitted via: CDex 1.78
#
DISCID=2d090604
DTITLE=John Coltrane - Giant Steps - The Best Of The Early Years 1956-1960
DYEAR=1956
DGENRE=Jazz
TTITLE0=Wejah
TTITLE1=Polka Dots and Moonbeams
TTITLE2=On It
TTITLE3=Avalon
EXTD=YEAR: 1956
EXTT0=
EXTT1=
EXTT2=
EXTT3=
PLAYORDER=
